<svg width="26" height="17" viewBox="0 0 26 17" fill="none" xmlns="http://www.w3.org/2000/svg">
<path d="M17.3568 16.9413C17.0749 16.6593 16.8059 16.3904 16.5337 16.1181C18.8346 13.814 21.142 11.5066 23.4818 9.16674C17.9175 9.16674 5.69663 9.16674 0.158203 9.16674C0.158203 8.76813 0.158203 8.38897 0.158203 7.99036C5.68691 7.99036 17.9077 7.99036 23.4397 7.99036C21.1193 5.66999 18.8119 3.36258 16.5207 1.06489C16.8156 0.769986 17.0911 0.497765 17.3698 0.21582C17.386 0.232024 17.4249 0.267671 17.4638 0.303319C20.0564 2.89591 22.6489 5.4885 25.2448 8.08434C25.5786 8.41813 25.5753 8.72924 25.2415 9.06628C22.6457 11.6621 20.0466 14.2612 17.4508 16.857C17.4184 16.8829 17.3892 16.9121 17.3568 16.9413Z" fill="#40475E"/>
</svg>
