<svg width="26" height="17" viewBox="0 0 26 17" fill="none" xmlns="http://www.w3.org/2000/svg">
<path d="M8.34275 0.157715C8.6247 0.439659 8.89368 0.708641 9.1659 0.980863C6.86497 3.28503 4.55757 5.59244 2.21775 7.93225C7.7821 7.93225 20.0029 7.93225 25.5414 7.93225C25.5414 8.33086 25.5414 8.71003 25.5414 9.10864C20.0127 9.10864 7.79183 9.10864 2.25988 9.10864C4.58025 11.429 6.88766 13.7364 9.17886 16.0341C8.88395 16.329 8.60849 16.6012 8.32979 16.8832C8.31358 16.867 8.2747 16.8313 8.23581 16.7957C5.64321 14.2031 3.05062 11.6105 0.454787 9.01466C0.120991 8.68086 0.124232 8.36975 0.458028 8.03271C3.05386 5.43688 5.65294 2.83781 8.24877 0.241974C8.28118 0.216048 8.31034 0.186882 8.34275 0.157715Z" fill="#40475E"/>
</svg>
