<?xml version="1.0" encoding="UTF-8" standalone="no"?>
<!-- Generator: Adobe Illustrator 19.0.0, SVG Export Plug-In . SVG Version: 6.00 Build 0)  -->

<svg
   xmlns:dc="http://purl.org/dc/elements/1.1/"
   xmlns:cc="http://creativecommons.org/ns#"
   xmlns:rdf="http://www.w3.org/1999/02/22-rdf-syntax-ns#"
   xmlns:svg="http://www.w3.org/2000/svg"
   xmlns="http://www.w3.org/2000/svg"
   xmlns:sodipodi="http://sodipodi.sourceforge.net/DTD/sodipodi-0.dtd"
   xmlns:inkscape="http://www.inkscape.org/namespaces/inkscape"
   version="1.1"
   id="Capa_1"
   x="0px"
   y="0px"
   viewBox="0 0 58 58"
   style="enable-background:new 0 0 58 58;"
   xml:space="preserve"
   sodipodi:docname="smartphone-1.svg"
   inkscape:version="0.92.4 (5da689c313, 2019-01-14)"><metadata
   id="metadata1101"><rdf:RDF><cc:Work
       rdf:about=""><dc:format>image/svg+xml</dc:format><dc:type
         rdf:resource="http://purl.org/dc/dcmitype/StillImage" /></cc:Work></rdf:RDF></metadata><defs
   id="defs1099" /><sodipodi:namedview
   pagecolor="#ffffff"
   bordercolor="#666666"
   borderopacity="1"
   objecttolerance="10"
   gridtolerance="10"
   guidetolerance="10"
   inkscape:pageopacity="0"
   inkscape:pageshadow="2"
   inkscape:window-width="1920"
   inkscape:window-height="1017"
   id="namedview1097"
   showgrid="false"
   inkscape:zoom="8.137931"
   inkscape:cx="14.762031"
   inkscape:cy="24.760176"
   inkscape:window-x="-8"
   inkscape:window-y="-8"
   inkscape:window-maximized="1"
   inkscape:current-layer="Capa_1" />

<circle
   style="fill:#FFFFFF;"
   cx="18"
   cy="53"
   r="3"
   id="circle1052" />
<path
   style="fill:#424A60;"
   d="M18,4h-4c-0.553,0-1-0.447-1-1s0.447-1,1-1h4c0.553,0,1,0.447,1,1S18.553,4,18,4z"
   id="path1054" />
<path
   style="fill:#424A60;"
   d="M22,4h-1c-0.553,0-1-0.447-1-1s0.447-1,1-1h1c0.553,0,1,0.447,1,1S22.553,4,22,4z"
   id="path1056" />

<line
   style="fill:none;stroke:#EBBA16;stroke-width:2;stroke-linecap:round;stroke-miterlimit:10;"
   x1="55"
   y1="26"
   x2="17"
   y2="26"
   id="line1060" />
<line
   style="fill:none;stroke:#EBBA16;stroke-width:2;stroke-linecap:round;stroke-miterlimit:10;"
   x1="29"
   y1="38"
   x2="17"
   y2="26"
   id="line1062" />
<line
   style="fill:none;stroke:#EBBA16;stroke-width:2;stroke-linecap:round;stroke-miterlimit:10;"
   x1="29"
   y1="14"
   x2="17"
   y2="26"
   id="line1064" />
<g
   id="g1066">
</g>
<g
   id="g1068">
</g>
<g
   id="g1070">
</g>
<g
   id="g1072">
</g>
<g
   id="g1074">
</g>
<g
   id="g1076">
</g>
<g
   id="g1078">
</g>
<g
   id="g1080">
</g>
<g
   id="g1082">
</g>
<g
   id="g1084">
</g>
<g
   id="g1086">
</g>
<g
   id="g1088">
</g>
<g
   id="g1090">
</g>
<g
   id="g1092">
</g>
<g
   id="g1094">
</g>
<g
   id="g1720"
   transform="matrix(0.11544667,0,0,0.11229213,-0.33784439,0.31663052)"><g
     id="g1662"><g
       id="g1660"><g
         id="g1652"><path
           id="path1646"
           d="M 368.129,504.5 H 143.871 c -16.569,0 -30,-13.431 -30,-30 v -437 c 0,-16.569 13.431,-30 30,-30 H 368.13 c 16.569,0 30,13.431 30,30 v 437 c -10e-4,16.569 -13.432,30 -30.001,30 z"
           inkscape:connector-curvature="0"
           style="fill:#d8ecfe" /><path
           id="path1648"
           d="m 368.129,7.5 h -43.338 c 16.568,0 30,13.432 30,30 v 437 c 0,16.568 -13.432,30 -30,30 h 43.338 c 16.569,0 30,-13.432 30,-30 v -437 c 0,-16.568 -13.431,-30 -30,-30 z"
           inkscape:connector-curvature="0"
           style="fill:#c4e2ff" /><path
           id="path1650"
           d="M 368.13,512 H 143.871 c -20.678,0 -37.5,-16.822 -37.5,-37.5 v -437 c 0,-20.678 16.822,-37.5 37.5,-37.5 H 368.13 c 20.678,0 37.5,16.822 37.5,37.5 v 437 c 0,20.678 -16.822,37.5 -37.5,37.5 z M 143.871,15 c -12.407,0 -22.5,10.094 -22.5,22.5 v 437 c 0,12.406 10.093,22.5 22.5,22.5 H 368.13 c 12.406,0 22.5,-10.094 22.5,-22.5 V 37.5 C 390.63,25.094 380.536,15 368.13,15 Z"
           inkscape:connector-curvature="0"
           style="fill:#3f6e90" /></g><g
         id="g1656"><path
           id="path1654"
           d="M 332.598,343.205 168.796,179.402 c -2.929,-2.93 -2.929,-7.678 0,-10.607 2.929,-2.928 7.678,-2.928 10.606,0 l 163.803,163.803 c 2.929,2.93 2.929,7.678 0,10.607 -2.929,2.93 -7.678,2.928 -10.607,0 z"
           inkscape:connector-curvature="0"
           style="fill:#3f6e90" /></g><path
         id="path1658"
         d="m 304.096,47.128 h -96.191 c -5.523,0 -10,-4.477 -10,-10 V 7.5 h 116.191 v 29.628 c 0,5.523 -4.478,10 -10,10 z"
         inkscape:connector-curvature="0"
         style="fill:#3f6e90" /></g></g><g
     id="g1670"><circle
       id="circle1664"
       r="43.339001"
       cy="431.16101"
       cx="256"
       style="fill:#aee49e" /><g
       id="g1668"><path
         id="path1666"
         d="m 252.234,455.854 c -4.851,0 -9.858,-1.582 -13.995,-4.094 -3.541,-2.149 -4.669,-6.762 -2.52,-10.303 2.149,-3.539 6.762,-4.668 10.303,-2.52 1.715,1.041 3.676,1.691 5.67,1.883 l 0.163,0.016 c 1.659,0.165 3.308,-0.666 4.181,-2.104 l 5.692,-9.372 c 0.872,-1.438 0.846,-3.279 -0.068,-4.691 l -0.088,-0.135 c -1.084,-1.675 -2.566,-3.114 -4.28,-4.155 -3.541,-2.15 -4.667,-6.764 -2.517,-10.304 2.151,-3.542 6.763,-4.668 10.304,-2.517 3.635,2.208 6.777,5.261 9.088,8.828 l 0.087,0.134 c 4.018,6.201 4.136,14.3 0.296,20.625 l -5.692,9.372 c -3.522,5.801 -9.907,9.337 -16.624,9.337 z"
         inkscape:connector-curvature="0"
         style="fill:#ffffff" /></g></g><g
     id="g1690"><circle
       id="circle1672"
       r="65.5"
       cy="256"
       cx="256"
       style="fill:#f58a97" /><path
       id="path1674"
       d="m 256,190.5 c -5.164,0 -10.181,0.616 -15,1.746 28.942,6.784 50.5,32.743 50.5,63.754 0,31.011 -21.558,56.97 -50.5,63.754 4.819,1.13 9.836,1.746 15,1.746 36.175,0 65.5,-29.325 65.5,-65.5 0,-36.175 -29.325,-65.5 -65.5,-65.5 z"
       inkscape:connector-curvature="0"
       style="fill:#f07281" /><g
       id="g1688"><g
         id="g1678"><path
           id="path1676"
           d="m 218.523,249.773 c -1.919,0 -3.839,-0.732 -5.303,-2.196 -2.929,-2.93 -2.929,-7.678 0,-10.607 11.427,-11.427 26.62,-17.72 42.78,-17.72 16.16,0 31.354,6.293 42.78,17.721 2.929,2.929 2.929,7.678 -10e-4,10.606 -2.929,2.929 -7.678,2.928 -10.606,-0.001 -8.594,-8.594 -20.02,-13.326 -32.173,-13.326 -12.153,0 -23.58,4.732 -32.173,13.327 -1.465,1.464 -3.384,2.196 -5.304,2.196 z"
           inkscape:connector-curvature="0"
           style="fill:#ffffff" /></g><g
         id="g1682"><path
           id="path1680"
           d="m 272.264,270.986 c -1.919,0 -3.839,-0.732 -5.304,-2.196 -6.042,-6.044 -15.877,-6.044 -21.92,0 -2.929,2.928 -7.678,2.929 -10.606,-0.001 -2.929,-2.929 -2.929,-7.678 0,-10.606 11.893,-11.893 31.242,-11.891 43.134,0 2.929,2.93 2.929,7.678 0,10.607 -1.465,1.464 -3.385,2.196 -5.304,2.196 z"
           inkscape:connector-curvature="0"
           style="fill:#ffffff" /></g><g
         id="g1686"><circle
           id="circle1684"
           r="7.5"
           cy="285.25"
           cx="256"
           style="fill:#ffffff" /></g></g></g><g
     id="g1704"><path
       id="path1692"
       d="m 504.5,384.173 c 0,27.395 -12.195,51.941 -31.453,68.506 -15.811,13.6 -36.383,12.411 -58.874,12.411 -22.492,0 -43.063,1.19 -58.874,-12.411 -19.258,-16.565 -31.453,-41.111 -31.453,-68.506 0,-49.886 40.441,-90.327 90.327,-90.327 49.886,0 90.327,40.441 90.327,90.327 z"
       inkscape:connector-curvature="0"
       style="fill:#f9f7f8" /><path
       id="path1694"
       d="m 414.173,293.846 c -5.111,0 -10.121,0.431 -15,1.247 42.746,7.146 75.327,44.305 75.327,89.08 0,44.775 -32.581,81.935 -75.327,89.08 4.879,0.816 12.867,-1.521 17.978,-1.521 22.492,0 40.085,-5.453 55.896,-19.053 19.258,-16.565 31.453,-41.112 31.453,-68.506 0,-49.886 -40.441,-90.327 -90.327,-90.327 z"
       inkscape:connector-curvature="0"
       style="fill:#efedef" /><path
       id="path1696"
       d="m 414.173,399.05 c -30.801,0 -56.092,23.551 -58.872,53.626 15.811,13.6 36.381,21.823 58.872,21.823 22.491,0 43.061,-8.223 58.872,-21.823 -2.78,-30.075 -28.071,-53.626 -58.872,-53.626 z"
       inkscape:connector-curvature="0"
       style="fill:#fddf80" /><path
       id="path1698"
       d="m 399.216,473.245 c 4.867,0.812 9.859,1.255 14.957,1.255 22.492,0 43.061,-8.223 58.872,-21.823 -0.888,-9.611 -4.084,-18.549 -9.015,-26.272 -12.916,24.367 -36.654,42.118 -64.814,46.84 z"
       inkscape:connector-curvature="0"
       style="fill:#f9d070" /><path
       id="path1700"
       d="m 414.173,411.501 c -17.229,0 -31.197,-13.967 -31.197,-31.197 v -11.899 c 0,-17.229 13.967,-31.197 31.197,-31.197 17.229,0 31.197,13.967 31.197,31.197 v 11.899 c 0,17.23 -13.968,31.197 -31.197,31.197 z"
       inkscape:connector-curvature="0"
       style="fill:#ffcebf" /><path
       id="path1702"
       d="m 414.173,337.209 c -5.438,0 -10.549,1.394 -15,3.84 9.653,5.304 16.197,15.565 16.197,27.357 v 11.898 c 0,11.792 -6.544,22.053 -16.197,27.357 4.451,2.446 9.562,3.84 15,3.84 17.229,0 31.197,-13.967 31.197,-31.197 v -11.898 c 0,-17.23 -13.968,-31.197 -31.197,-31.197 z"
       inkscape:connector-curvature="0"
       style="fill:#ffb09e" /></g><g
     id="g1718"><path
       id="path1706"
       d="m 188.154,127.827 c 0,27.395 -12.195,51.941 -31.453,68.506 -15.811,13.6 -36.383,9.99 -58.874,9.99 -22.491,0 -43.063,3.611 -58.874,-9.99 C 19.695,179.768 7.5,155.222 7.5,127.827 7.5,77.941 47.941,37.5 97.827,37.5 c 49.886,0 90.327,40.441 90.327,90.327 z"
       inkscape:connector-curvature="0"
       style="fill:#f9f7f8" /><path
       id="path1708"
       d="m 97.827,37.5 c -5.111,0 -10.121,0.431 -15,1.247 42.746,7.146 75.327,44.305 75.327,89.08 0,44.775 -32.581,81.935 -75.327,89.08 4.879,0.816 9.889,-1.653 15,-1.653 22.492,0 43.063,-5.321 58.874,-18.921 19.258,-16.565 31.453,-41.112 31.453,-68.506 0,-49.886 -40.441,-90.327 -90.327,-90.327 z"
       inkscape:connector-curvature="0"
       style="fill:#efedef" /><path
       id="path1710"
       d="m 97.827,142.704 c -30.801,0 -56.092,23.551 -58.872,53.627 15.811,13.6 36.381,21.823 58.872,21.823 22.491,0 43.061,-8.223 58.872,-21.823 -2.78,-30.076 -28.071,-53.627 -58.872,-53.627 z"
       inkscape:connector-curvature="0"
       style="fill:#aee49e" /><path
       id="path1712"
       d="m 82.87,216.899 c 4.867,0.812 9.859,1.255 14.957,1.255 22.492,0 43.061,-8.223 58.872,-21.823 -0.888,-9.611 -4.084,-18.549 -9.015,-26.272 -12.916,24.368 -36.654,42.119 -64.814,46.84 z"
       inkscape:connector-curvature="0"
       style="fill:#8bd8a5" /><path
       id="path1714"
       d="m 97.827,155.155 c -17.229,0 -31.197,-13.967 -31.197,-31.197 V 112.06 c 0,-17.229 13.967,-31.197 31.197,-31.197 17.229,0 31.197,13.967 31.197,31.197 v 11.899 c 0,17.229 -13.967,31.196 -31.197,31.196 z"
       inkscape:connector-curvature="0"
       style="fill:#ffcebf" /><path
       id="path1716"
       d="m 97.827,80.863 c -5.438,0 -10.549,1.394 -15,3.84 9.653,5.304 16.197,15.565 16.197,27.357 v 11.898 c 0,11.792 -6.544,22.053 -16.197,27.357 4.451,2.446 9.562,3.84 15,3.84 17.229,0 31.197,-13.967 31.197,-31.197 V 112.06 c 0,-17.23 -13.967,-31.197 -31.197,-31.197 z"
       inkscape:connector-curvature="0"
       style="fill:#ffb09e" /></g></g></svg>